<?xml version="1.0" encoding="UTF-8" standalone="no"?>
<!-- Created with Inkscape (http://www.inkscape.org/) -->

<svg
   width="1200"
   height="630"
   viewBox="0 0 1200 630"
   version="1.1"
   id="svg1"
   xml:space="preserve"
   inkscape:version="1.4.2 (ebf0e940d0, 2025-05-08)"
   sodipodi:docname="og.svg"
   xmlns:inkscape="http://www.inkscape.org/namespaces/inkscape"
   xmlns:sodipodi="http://sodipodi.sourceforge.net/DTD/sodipodi-0.dtd"
   xmlns="http://www.w3.org/2000/svg"
   xmlns:svg="http://www.w3.org/2000/svg"><sodipodi:namedview
     id="namedview1"
     pagecolor="#ffffff"
     bordercolor="#000000"
     borderopacity="0.25"
     inkscape:showpageshadow="2"
     inkscape:pageopacity="0.0"
     inkscape:pagecheckerboard="0"
     inkscape:deskcolor="#d1d1d1"
     inkscape:document-units="px"
     inkscape:zoom="0.28195883"
     inkscape:cx="19.506394"
     inkscape:cy="320.96885"
     inkscape:window-width="1920"
     inkscape:window-height="1006"
     inkscape:window-x="0"
     inkscape:window-y="0"
     inkscape:window-maximized="1"
     inkscape:current-layer="g31" /><defs
     id="defs1"><linearGradient
       id="b"
       x1="13.887"
       x2="113.83"
       y1="15.06"
       y2="112.8"
       gradientUnits="userSpaceOnUse"><stop
         stop-color="#38bdf8"
         offset="0"
         id="stop1" /><stop
         stop-color="#4338ca"
         offset="1"
         id="stop2" /></linearGradient><clipPath
       id="c"><path
         d="m38.816 38.117c-14.831 0-27 11.518-27 25.883s12.169 25.881 27 25.881h50.367c14.831 0 27-11.516 27-25.881s-12.169-25.883-27-25.883zm0 6h50.367c11.761 0 21 8.8953 21 19.883s-9.2391 19.881-21 19.881h-50.367c-11.761 0-21-8.8933-21-19.881s9.2391-19.883 21-19.883zm-0.78125 9.5996a10.283 10.283 0 0 0-10.283 10.283 10.283 10.283 0 0 0 10.283 10.283 10.283 10.283 0 0 0 10.281-10.283 10.283 10.283 0 0 0-10.281-10.283zm25.965 0a10.283 10.283 0 0 0-10.283 10.283 10.283 10.283 0 0 0 10.283 10.283 10.283 10.283 0 0 0 10.281-10.283 10.283 10.283 0 0 0-10.281-10.283zm25.965 0a10.283 10.283 0 0 0-10.283 10.283 10.283 10.283 0 0 0 10.283 10.283 10.283 10.283 0 0 0 10.283-10.283 10.283 10.283 0 0 0-10.283-10.283z"
         stop-color="#000000"
         stroke-linejoin="round"
         style="paint-order:stroke markers fill"
         id="path2" /></clipPath><filter
       style="color-interpolation-filters:sRGB;"
       inkscape:label="Drop Shadow"
       id="filter29"
       x="-0.05625"
       y="-0.05625"
       width="1.1125"
       height="1.1359375"><feFlood
         result="flood"
         in="SourceGraphic"
         flood-opacity="0.301961"
         flood-color="rgb(0,0,0)"
         id="feFlood28" /><feGaussianBlur
         result="blur"
         in="SourceGraphic"
         stdDeviation="3.000000"
         id="feGaussianBlur28" /><feOffset
         result="offset"
         in="blur"
         dx="0.000000"
         dy="3.000000"
         id="feOffset28" /><feComposite
         result="comp1"
         operator="in"
         in="flood"
         in2="offset"
         id="feComposite28" /><feComposite
         result="comp2"
         operator="over"
         in="SourceGraphic"
         in2="comp1"
         id="feComposite29" /></filter></defs><g
     inkscape:label="Layer 1"
     inkscape:groupmode="layer"
     id="layer1"><g
       id="g31"
       transform="translate(-40.055972)"><g
         id="g1"
         transform="matrix(2,0,0,2,127.86517,184.00001)"
         style="filter:url(#filter29)"><rect
           width="128"
           height="128"
           rx="64"
           fill="#ffffff"
           id="rect2"
           x="0"
           y="0" /><rect
           width="128"
           height="128"
           rx="0"
           clip-path="url(#c)"
           fill="url(#b)"
           id="rect3"
           x="0"
           y="0"
           style="fill:url(#b)" /></g><g
         id="g32"
         transform="translate(0,-32.578673)"><text
           xml:space="preserve"
           style="font-weight:bold;font-size:153.6px;font-family:Figtree;-inkscape-font-specification:'Figtree Bold';text-align:start;writing-mode:lr-tb;direction:ltr;text-anchor:start;fill:#000000;fill-opacity:1;stroke:none;stroke-width:4.8;stroke-linecap:round;stroke-linejoin:round"
           x="428.38266"
           y="370.37277"
           id="text31"><tspan
             sodipodi:role="line"
             id="tspan31"
             x="428.38266"
             y="370.37277"
             style="font-size:153.6px;stroke-width:4.8">Passistant</tspan></text><text
           xml:space="preserve"
           style="font-style:normal;font-variant:normal;font-weight:normal;font-stretch:normal;font-size:42.6667px;font-family:Figtree;-inkscape-font-specification:Figtree;text-align:start;writing-mode:lr-tb;direction:ltr;text-anchor:start;fill:#000000;fill-opacity:1;stroke:none;stroke-width:6;stroke-linecap:round;stroke-linejoin:round"
           x="439.67203"
           y="428.84006"
           id="text32"><tspan
             sodipodi:role="line"
             id="tspan32"
             x="439.67203"
             y="428.84006"
             style="font-style:normal;font-variant:normal;font-weight:normal;font-stretch:normal;font-size:42.6667px;font-family:Figtree;-inkscape-font-specification:Figtree">Your personal AI password assistant</tspan></text></g></g></g></svg>
