<svg width="128" height="128" viewBox="0 0 128 128" xmlns="http://www.w3.org/2000/svg"><defs><linearGradient id="b" x1="13.887" x2="113.83" y1="15.06" y2="112.8" gradientUnits="userSpaceOnUse"><stop stop-color="#38bdf8" offset="0"/><stop stop-color="#4338ca" offset="1"/></linearGradient><clipPath id="c"><path d="m38.816 38.117c-14.831 0-27 11.518-27 25.883s12.169 25.881 27 25.881h50.367c14.831 0 27-11.516 27-25.881s-12.169-25.883-27-25.883zm0 6h50.367c11.761 0 21 8.8953 21 19.883s-9.2391 19.881-21 19.881h-50.367c-11.761 0-21-8.8933-21-19.881s9.2391-19.883 21-19.883zm-0.78125 9.5996a10.283 10.283 0 0 0-10.283 10.283 10.283 10.283 0 0 0 10.283 10.283 10.283 10.283 0 0 0 10.281-10.283 10.283 10.283 0 0 0-10.281-10.283zm25.965 0a10.283 10.283 0 0 0-10.283 10.283 10.283 10.283 0 0 0 10.283 10.283 10.283 10.283 0 0 0 10.281-10.283 10.283 10.283 0 0 0-10.281-10.283zm25.965 0a10.283 10.283 0 0 0-10.283 10.283 10.283 10.283 0 0 0 10.283 10.283 10.283 10.283 0 0 0 10.283-10.283 10.283 10.283 0 0 0-10.283-10.283z" stop-color="#000000" stroke-linejoin="round" style="paint-order:stroke markers fill"/></clipPath></defs><rect width="128" height="128" rx="64" fill="#fff"/><rect width="128" height="128" rx="0" clip-path="url(#c)" fill="url(#b)"/></svg>
